<svg width="367" height="100" viewBox="0 0 367 100" fill="none" xmlns="http://www.w3.org/2000/svg">
<path d="M29.1667 75C23.9679 75 18.982 73.0246 15.3058 69.5082C11.6297 65.9919 9.56445 61.2228 9.56445 56.25C9.56445 51.2772 11.6297 46.5081 15.3058 42.9917C18.982 39.4754 23.9679 37.5 29.1667 37.5C30.3946 32.0299 33.9866 27.2228 39.1525 24.1363C41.7104 22.608 44.5777 21.5481 47.5908 21.0171C50.6038 20.4862 53.7036 20.4945 56.713 21.0417C59.7225 21.5888 62.5827 22.6641 65.1304 24.2062C67.6782 25.7482 69.8635 27.7267 71.5616 30.0289C73.2597 32.331 74.4373 34.9116 75.0273 37.6233C75.6173 40.3351 75.608 43.1248 75.0001 45.8333H79.1667C83.0345 45.8333 86.7438 47.3698 89.4787 50.1047C92.2136 52.8396 93.7501 56.5489 93.7501 60.4167C93.7501 64.2844 92.2136 67.9937 89.4787 70.7286C86.7438 73.4635 83.0345 75 79.1667 75H29.1667Z" fill="white" stroke="white" stroke-width="6.25" stroke-linecap="round" stroke-linejoin="round"/>
<path d="M129.62 42.716C129.908 43.7 130.22 44.816 130.556 46.064C130.916 47.288 131.288 48.56 131.672 49.88C132.08 51.2 132.488 52.52 132.896 53.84C133.304 55.16 133.7 56.384 134.084 57.512C134.396 56.288 134.708 54.956 135.02 53.516C135.356 52.076 135.668 50.588 135.956 49.052C136.244 47.516 136.52 45.992 136.784 44.48C137.072 42.944 137.336 41.468 137.576 40.052H143.408C142.568 44.228 141.596 48.464 140.492 52.76C139.412 57.056 138.236 61.136 136.964 65H131.816C130.976 62.696 130.16 60.284 129.368 57.764C128.576 55.22 127.796 52.676 127.028 50.132C126.26 52.676 125.492 55.22 124.724 57.764C123.956 60.284 123.152 62.696 122.312 65H117.164C115.892 61.136 114.704 57.056 113.6 52.76C112.52 48.464 111.56 44.228 110.72 40.052H116.804C117.044 41.468 117.308 42.944 117.596 44.48C117.884 45.992 118.184 47.516 118.496 49.052C118.808 50.588 119.12 52.076 119.432 53.516C119.768 54.956 120.104 56.288 120.44 57.512C120.872 56.336 121.292 55.088 121.7 53.768C122.108 52.448 122.504 51.128 122.888 49.808C123.272 48.488 123.62 47.216 123.932 45.992C124.268 44.768 124.568 43.676 124.832 42.716H129.62ZM144.561 55.676C144.561 53.996 144.813 52.532 145.317 51.284C145.845 50.012 146.529 48.956 147.369 48.116C148.209 47.276 149.169 46.64 150.249 46.208C151.353 45.776 152.481 45.56 153.633 45.56C156.321 45.56 158.445 46.388 160.005 48.044C161.565 49.676 162.345 52.088 162.345 55.28C162.345 55.592 162.333 55.94 162.309 56.324C162.285 56.684 162.261 57.008 162.237 57.296H150.069C150.189 58.4 150.705 59.276 151.617 59.924C152.529 60.572 153.753 60.896 155.289 60.896C156.273 60.896 157.233 60.812 158.169 60.644C159.129 60.452 159.909 60.224 160.509 59.96L161.229 64.316C160.941 64.46 160.557 64.604 160.077 64.748C159.597 64.892 159.057 65.012 158.457 65.108C157.881 65.228 157.257 65.324 156.585 65.396C155.913 65.468 155.241 65.504 154.569 65.504C152.865 65.504 151.377 65.252 150.105 64.748C148.857 64.244 147.813 63.56 146.973 62.696C146.157 61.808 145.545 60.764 145.137 59.564C144.753 58.364 144.561 57.068 144.561 55.676ZM157.161 53.624C157.137 53.168 157.053 52.724 156.909 52.292C156.789 51.86 156.585 51.476 156.297 51.14C156.033 50.804 155.685 50.528 155.253 50.312C154.845 50.096 154.329 49.988 153.705 49.988C153.105 49.988 152.589 50.096 152.157 50.312C151.725 50.504 151.365 50.768 151.077 51.104C150.789 51.44 150.561 51.836 150.393 52.292C150.249 52.724 150.141 53.168 150.069 53.624H157.161ZM173.721 61.256C174.249 61.256 174.753 61.244 175.233 61.22C175.713 61.196 176.097 61.16 176.385 61.112V57.044C176.169 56.996 175.845 56.948 175.413 56.9C174.981 56.852 174.585 56.828 174.225 56.828C173.721 56.828 173.241 56.864 172.785 56.936C172.353 56.984 171.969 57.092 171.633 57.26C171.297 57.428 171.033 57.656 170.841 57.944C170.649 58.232 170.553 58.592 170.553 59.024C170.553 59.864 170.829 60.452 171.381 60.788C171.957 61.1 172.737 61.256 173.721 61.256ZM173.289 45.56C174.873 45.56 176.193 45.74 177.249 46.1C178.305 46.46 179.145 46.976 179.769 47.648C180.417 48.32 180.873 49.136 181.137 50.096C181.401 51.056 181.533 52.124 181.533 53.3V64.46C180.765 64.628 179.697 64.82 178.329 65.036C176.961 65.276 175.305 65.396 173.361 65.396C172.137 65.396 171.021 65.288 170.013 65.072C169.029 64.856 168.177 64.508 167.457 64.028C166.737 63.524 166.185 62.876 165.801 62.084C165.417 61.292 165.225 60.32 165.225 59.168C165.225 58.064 165.441 57.128 165.873 56.36C166.329 55.592 166.929 54.98 167.673 54.524C168.417 54.068 169.269 53.744 170.229 53.552C171.189 53.336 172.185 53.228 173.217 53.228C173.913 53.228 174.525 53.264 175.053 53.336C175.605 53.384 176.049 53.456 176.385 53.552V53.048C176.385 52.136 176.109 51.404 175.557 50.852C175.005 50.3 174.045 50.024 172.677 50.024C171.765 50.024 170.865 50.096 169.977 50.24C169.089 50.36 168.321 50.54 167.673 50.78L166.989 46.46C167.301 46.364 167.685 46.268 168.141 46.172C168.621 46.052 169.137 45.956 169.689 45.884C170.241 45.788 170.817 45.716 171.417 45.668C172.041 45.596 172.665 45.56 173.289 45.56ZM186.203 41.348L191.567 40.484V46.064H198.011V50.528H191.567V57.188C191.567 58.316 191.759 59.216 192.143 59.888C192.551 60.56 193.355 60.896 194.555 60.896C195.131 60.896 195.719 60.848 196.319 60.752C196.943 60.632 197.507 60.476 198.011 60.284L198.767 64.46C198.119 64.724 197.399 64.952 196.607 65.144C195.815 65.336 194.843 65.432 193.691 65.432C192.227 65.432 191.015 65.24 190.055 64.856C189.095 64.448 188.327 63.896 187.751 63.2C187.175 62.48 186.767 61.616 186.527 60.608C186.311 59.6 186.203 58.484 186.203 57.26V41.348ZM202.379 65V37.928L207.743 37.064V46.136C208.103 46.016 208.559 45.908 209.111 45.812C209.687 45.692 210.239 45.632 210.767 45.632C212.303 45.632 213.575 45.848 214.583 46.28C215.615 46.688 216.431 47.276 217.031 48.044C217.655 48.812 218.087 49.724 218.327 50.78C218.591 51.836 218.723 53.012 218.723 54.308V65H213.359V54.956C213.359 53.228 213.131 52.004 212.675 51.284C212.243 50.564 211.427 50.204 210.227 50.204C209.747 50.204 209.291 50.252 208.859 50.348C208.451 50.42 208.079 50.504 207.743 50.6V65H202.379ZM222.679 55.676C222.679 53.996 222.931 52.532 223.435 51.284C223.963 50.012 224.647 48.956 225.487 48.116C226.327 47.276 227.287 46.64 228.367 46.208C229.471 45.776 230.599 45.56 231.751 45.56C234.439 45.56 236.563 46.388 238.123 48.044C239.683 49.676 240.463 52.088 240.463 55.28C240.463 55.592 240.451 55.94 240.427 56.324C240.403 56.684 240.379 57.008 240.355 57.296H228.187C228.307 58.4 228.823 59.276 229.735 59.924C230.647 60.572 231.871 60.896 233.407 60.896C234.391 60.896 235.351 60.812 236.287 60.644C237.247 60.452 238.027 60.224 238.627 59.96L239.347 64.316C239.059 64.46 238.675 64.604 238.195 64.748C237.715 64.892 237.175 65.012 236.575 65.108C235.999 65.228 235.375 65.324 234.703 65.396C234.031 65.468 233.359 65.504 232.687 65.504C230.983 65.504 229.495 65.252 228.223 64.748C226.975 64.244 225.931 63.56 225.091 62.696C224.275 61.808 223.663 60.764 223.255 59.564C222.871 58.364 222.679 57.068 222.679 55.676ZM235.279 53.624C235.255 53.168 235.171 52.724 235.027 52.292C234.907 51.86 234.703 51.476 234.415 51.14C234.151 50.804 233.803 50.528 233.371 50.312C232.963 50.096 232.447 49.988 231.823 49.988C231.223 49.988 230.707 50.096 230.275 50.312C229.843 50.504 229.483 50.768 229.195 51.104C228.907 51.44 228.679 51.836 228.511 52.292C228.367 52.724 228.259 53.168 228.187 53.624H235.279ZM256.014 50.816C255.534 50.696 254.97 50.576 254.322 50.456C253.674 50.312 252.978 50.24 252.234 50.24C251.898 50.24 251.49 50.276 251.01 50.348C250.554 50.396 250.206 50.456 249.966 50.528V65H244.602V47.072C245.562 46.736 246.69 46.424 247.986 46.136C249.306 45.824 250.77 45.668 252.378 45.668C252.666 45.668 253.014 45.692 253.422 45.74C253.83 45.764 254.238 45.812 254.646 45.884C255.054 45.932 255.462 46.004 255.87 46.1C256.278 46.172 256.626 46.268 256.914 46.388L256.014 50.816ZM283.846 40.052H289.462V65H283.846V54.416H274.414V65H268.798V40.052H274.414V49.592H283.846V40.052ZM312.587 55.496C312.587 56.984 312.371 58.352 311.939 59.6C311.507 60.824 310.883 61.88 310.067 62.768C309.251 63.632 308.267 64.304 307.115 64.784C305.987 65.264 304.715 65.504 303.299 65.504C301.907 65.504 300.635 65.264 299.483 64.784C298.355 64.304 297.383 63.632 296.567 62.768C295.751 61.88 295.115 60.824 294.659 59.6C294.203 58.352 293.975 56.984 293.975 55.496C293.975 54.008 294.203 52.652 294.659 51.428C295.139 50.204 295.787 49.16 296.603 48.296C297.443 47.432 298.427 46.76 299.555 46.28C300.707 45.8 301.955 45.56 303.299 45.56C304.667 45.56 305.915 45.8 307.043 46.28C308.195 46.76 309.179 47.432 309.995 48.296C310.811 49.16 311.447 50.204 311.903 51.428C312.359 52.652 312.587 54.008 312.587 55.496ZM307.115 55.496C307.115 53.84 306.779 52.544 306.107 51.608C305.459 50.648 304.523 50.168 303.299 50.168C302.075 50.168 301.127 50.648 300.455 51.608C299.783 52.544 299.447 53.84 299.447 55.496C299.447 57.152 299.783 58.472 300.455 59.456C301.127 60.416 302.075 60.896 303.299 60.896C304.523 60.896 305.459 60.416 306.107 59.456C306.779 58.472 307.115 57.152 307.115 55.496ZM327.147 54.956C327.147 53.228 326.919 52.004 326.463 51.284C326.031 50.564 325.275 50.204 324.195 50.204C323.859 50.204 323.511 50.228 323.151 50.276C322.791 50.3 322.443 50.336 322.107 50.384V65H316.743V46.712C317.199 46.592 317.727 46.472 318.327 46.352C318.951 46.208 319.599 46.088 320.271 45.992C320.967 45.872 321.675 45.788 322.395 45.74C323.115 45.668 323.823 45.632 324.519 45.632C325.887 45.632 326.991 45.812 327.831 46.172C328.695 46.508 329.403 46.916 329.955 47.396C330.723 46.844 331.599 46.412 332.583 46.1C333.591 45.788 334.515 45.632 335.355 45.632C336.867 45.632 338.103 45.848 339.063 46.28C340.047 46.688 340.827 47.276 341.403 48.044C341.979 48.812 342.375 49.724 342.591 50.78C342.807 51.836 342.915 53.012 342.915 54.308V65H337.551V54.956C337.551 53.228 337.323 52.004 336.867 51.284C336.435 50.564 335.679 50.204 334.599 50.204C334.311 50.204 333.903 50.276 333.375 50.42C332.871 50.564 332.451 50.744 332.115 50.96C332.283 51.512 332.391 52.1 332.439 52.724C332.487 53.324 332.511 53.972 332.511 54.668V65H327.147V54.956ZM346.886 55.676C346.886 53.996 347.138 52.532 347.642 51.284C348.17 50.012 348.854 48.956 349.694 48.116C350.534 47.276 351.494 46.64 352.574 46.208C353.678 45.776 354.806 45.56 355.958 45.56C358.646 45.56 360.77 46.388 362.33 48.044C363.89 49.676 364.67 52.088 364.67 55.28C364.67 55.592 364.658 55.94 364.634 56.324C364.61 56.684 364.586 57.008 364.562 57.296H352.394C352.514 58.4 353.03 59.276 353.942 59.924C354.854 60.572 356.078 60.896 357.614 60.896C358.598 60.896 359.558 60.812 360.494 60.644C361.454 60.452 362.234 60.224 362.834 59.96L363.554 64.316C363.266 64.46 362.882 64.604 362.402 64.748C361.922 64.892 361.382 65.012 360.782 65.108C360.206 65.228 359.582 65.324 358.91 65.396C358.238 65.468 357.566 65.504 356.894 65.504C355.19 65.504 353.702 65.252 352.43 64.748C351.182 64.244 350.138 63.56 349.298 62.696C348.482 61.808 347.87 60.764 347.462 59.564C347.078 58.364 346.886 57.068 346.886 55.676ZM359.486 53.624C359.462 53.168 359.378 52.724 359.234 52.292C359.114 51.86 358.91 51.476 358.622 51.14C358.358 50.804 358.01 50.528 357.578 50.312C357.17 50.096 356.654 49.988 356.03 49.988C355.43 49.988 354.914 50.096 354.482 50.312C354.05 50.504 353.69 50.768 353.402 51.104C353.114 51.44 352.886 51.836 352.718 52.292C352.574 52.724 352.466 53.168 352.394 53.624H359.486Z" fill="white"/>
</svg>
